<svg xmlns="http://www.w3.org/2000/svg" viewBox="0 0 524.5 524.5">
  <title>Asset 10</title>
  <g id="79449d18-8e6d-4fc3-bbc2-df6eb692ce91" data-name="Layer 2">
    <g id="26ce796d-fd58-46b5-9c2b-370fe9e77805" data-name="Layer 1">
      <g>
        <g>
          <g>
            <polygon points="416.28 454.02 372.96 432.37 416.28 454.02 416.28 454.02" style="fill: none"/>
            <path d="M201.71,351.11s-22.87-27.36-31.6-65.38a26.18,26.18,0,0,1-12.09-22V228.8a26,26,0,0,1,8.74-19.37V158.91s-10.38-78.62,96.09-78.62c24.95,0,43.49,4.32,57.24,10.93-13.75-6.62-32.29-10.94-57.26-10.94-106.47,0-96.09,78.62-96.09,78.62v50.52A26.07,26.07,0,0,0,158,228.79v35a26.19,26.19,0,0,0,12.09,22c8.72,38,31.6,65.38,31.6,65.38V383A31.83,31.83,0,0,1,192,405.89a31.88,31.88,0,0,0,9.7-22.85Z" style="fill: none"/>
            <g>
              <polygon points="416.28 454.02 372.96 432.37 416.28 454.02 416.28 454.02" style="fill: none"/>
              <path d="M201.71,351.11s-22.87-27.36-31.6-65.38a26.18,26.18,0,0,1-12.09-22V228.8a26,26,0,0,1,8.74-19.37V158.91s-10.38-78.62,96.09-78.62c24.95,0,43.49,4.32,57.24,10.93-13.75-6.62-32.29-10.94-57.26-10.94-106.47,0-96.09,78.62-96.09,78.62v50.52A26.07,26.07,0,0,0,158,228.79v35a26.19,26.19,0,0,0,12.09,22c8.72,38,31.6,65.38,31.6,65.38V383A31.83,31.83,0,0,1,192,405.89a31.88,31.88,0,0,0,9.7-22.85Z" style="fill: none"/>
              <path d="M416.28,454,373,432.37,332.83,412.3a31.8,31.8,0,0,1-17.6-28.46V351.1a125.35,125.35,0,0,0,7.9-10.15,192.12,192.12,0,0,0,25.94-52.28,26.22,26.22,0,0,0,18.59-24.93v-35a26,26,0,0,0-8.74-19.37V158.9s6.09-46.07-38.83-67.68c-13.75-6.61-32.29-10.93-57.24-10.93-106.47,0-96.09,78.62-96.09,78.62v50.52A26,26,0,0,0,158,228.8v34.95a26.18,26.18,0,0,0,12.09,22c8.73,38,31.6,65.38,31.6,65.38V383A31.85,31.85,0,0,1,185.1,411l-77.93,42.51a68.9,68.9,0,0,0-12.39,8.81h0l-.1.08a261,261,0,0,0,335.36.87l0,0h0A70,70,0,0,0,416.28,454Z" style="fill: #1b1464"/>
              <path d="M267.31,1.47C123.09-1,4.17,113.93,1.7,258.15.3,339.92,36.75,413.41,94.77,462.29h0a68.9,68.9,0,0,1,12.39-8.81L185.1,411A31.8,31.8,0,0,0,201.69,383V351.1s-22.88-27.36-31.6-65.38a26.19,26.19,0,0,1-12.09-22v-35a26.07,26.07,0,0,1,8.74-19.37V158.9s-10.38-78.62,96.09-78.62c25,0,43.51,4.32,57.26,10.94,44.92,21.61,38.83,67.68,38.83,67.68v50.52a26,26,0,0,1,8.74,19.37v35a26.22,26.22,0,0,1-18.59,24.93A192.12,192.12,0,0,1,323.13,341a125.35,125.35,0,0,1-7.9,10.15v32.74a31.8,31.8,0,0,0,17.6,28.46L373,432.37,416.28,454h0a70,70,0,0,1,13.7,9.19h0a260.49,260.49,0,0,0,94-196.12C526.44,122.86,411.54,3.94,267.31,1.47Z" style="fill: #98daff"/>
            </g>
          </g>
          <g>
            <circle cx="262.83" cy="262.61" r="66.39" style="fill: #ffc200;stroke: #fff;stroke-miterlimit: 10;stroke-width: 2px"/>
            <path d="M296,257.08H268.36V229.42a5.53,5.53,0,1,0-11.06,0v27.66H229.63a5.54,5.54,0,0,0,0,11.07H257.3v27.66a5.53,5.53,0,0,0,11.06,0V268.15H296a5.54,5.54,0,0,0,0-11.07Z" style="fill: #fff"/>
          </g>
        </g>
        <circle cx="262.25" cy="262.25" r="260.75" style="fill: none;stroke: #fff;stroke-miterlimit: 10;stroke-width: 3px"/>
      </g>
    </g>
  </g>
</svg>
