<svg xmlns="http://www.w3.org/2000/svg" viewBox="0 0 71.71 71.71">
  <title>Asset 18</title>
  <g id="c6da6721-2469-4fb1-b1fa-6208f4abff65" data-name="Layer 2">
    <g id="63240789-e998-4967-a5c3-cbb98c631911" data-name="Layer 1">
      <g>
        <path d="M63.31,5.6H60V0h-5.6V5.6h-37V0h-5.6V5.6H8.4A8.41,8.41,0,0,0,0,14v49.3a8.41,8.41,0,0,0,8.4,8.4H63.31a8.41,8.41,0,0,0,8.4-8.4V14A8.41,8.41,0,0,0,63.31,5.6Zm2.8,57.71a2.81,2.81,0,0,1-2.8,2.8H8.4a2.81,2.81,0,0,1-2.8-2.8v-37H66.11Zm0-42.58H5.6V14a2.8,2.8,0,0,1,2.8-2.8h3.37v5.6h5.6v-5.6h37v5.6H60v-5.6h3.36a2.8,2.8,0,0,1,2.8,2.8Z" style="fill: gray"/>
        <rect x="10.64" y="32.21" width="5.6" height="5.6" style="fill: gray"/>
        <rect x="21.85" y="32.21" width="5.6" height="5.6" style="fill: gray"/>
        <rect x="33.06" y="32.21" width="5.6" height="5.6" style="fill: gray"/>
        <rect x="44.26" y="32.21" width="5.6" height="5.6" style="fill: gray"/>
        <rect x="55.47" y="32.21" width="5.6" height="5.6" style="fill: gray"/>
        <rect x="10.64" y="43.42" width="5.6" height="5.6" style="fill: gray"/>
        <rect x="21.85" y="43.42" width="5.6" height="5.6" style="fill: gray"/>
        <rect x="33.06" y="43.42" width="5.6" height="5.6" style="fill: gray"/>
        <rect x="44.26" y="43.42" width="5.6" height="5.6" style="fill: gray"/>
        <rect x="10.64" y="54.63" width="5.6" height="5.6" style="fill: gray"/>
        <rect x="21.85" y="54.63" width="5.6" height="5.6" style="fill: gray"/>
        <rect x="33.06" y="54.63" width="5.6" height="5.6" style="fill: gray"/>
        <rect x="44.26" y="54.63" width="5.6" height="5.6" style="fill: gray"/>
        <rect x="55.47" y="43.42" width="5.6" height="5.6" style="fill: gray"/>
      </g>
    </g>
  </g>
</svg>
