<svg xmlns="http://www.w3.org/2000/svg" viewBox="0 0 57.46 71.71">
  <title>Asset 20</title>
  <g id="ca2bde91-4bfd-4be9-b86b-91b0c237a322" data-name="Layer 2">
    <g id="54fad4e1-919f-4b54-8eb5-0c8105241f5a" data-name="Layer 1">
      <g>
        <path d="M28.73,15.42A13.31,13.31,0,1,0,42,28.73,13.32,13.32,0,0,0,28.73,15.42Zm0,21a7.71,7.71,0,1,1,7.71-7.71A7.72,7.72,0,0,1,28.73,36.44Z" style="fill: gray"/>
        <path d="M28.73,0A28.76,28.76,0,0,0,0,28.73v.79c0,8,4.59,17.35,13.65,27.75A118.5,118.5,0,0,0,27,70.29l1.76,1.42,1.76-1.42a118.5,118.5,0,0,0,13.32-13c9.06-10.4,13.65-19.73,13.65-27.75v-.79A28.76,28.76,0,0,0,28.73,0ZM51.85,29.52c0,13.54-17.44,29.93-23.12,34.91-5.68-5-23.12-21.37-23.12-34.91v-.79a23.12,23.12,0,0,1,46.24,0v.79Z" style="fill: gray"/>
      </g>
    </g>
  </g>
</svg>
