<?xml version="1.0"?>
<svg xmlns="http://www.w3.org/2000/svg" xmlns:xlink="http://www.w3.org/1999/xlink" version="1.1" id="Capa_1" x="0px" y="0px" viewBox="0 0 512 512" style="enable-background:new 0 0 512 512;" xml:space="preserve" width="512px" height="512px" class=""><g><script xmlns="" id="tinyhippos-injected" class="active-path" style="fill:#828282" data-old_color="#858585"/><g>
	<path d="M62.834,132.922c0.149,0.703,15.998,72.751,66.743,102.049c32.422,18.719,72.537,16.468,97.644,12.286   C208.003,224.253,181,183.485,181,136c0-72.148,62.34-128.798,64.994-131.175l5.325-4.768   C184.691,1.244,122.227,27.734,74.981,74.98c-7.025,7.025-13.577,14.397-19.67,22.059L62.834,132.922z" data-original="#000000" class="active-path" data-old_color="#858585" fill="#828282"/>
	<path d="M266.006,27.175C265.473,27.656,211,77.405,211,136c0,37.258,22.021,70.933,38.202,90.65   c10.321-28.148,32.125-71.875,73.22-95.602c62.482-36.075,142.713-10.412,146.098-9.301l6.95,2.279   c-10.648-17.636-23.509-34.104-38.451-49.045C397.586,35.548,347.553,10.57,293.346,2.694L266.006,27.175z" data-original="#000000" class="active-path" data-old_color="#858585" fill="#828282"/>
	<path d="M52.828,361.747c0.684,0.222,71.004,22.521,121.749-6.776c32.424-18.72,50.532-54.588,59.463-78.422   c-11.175,1.946-25.1,3.587-40.335,3.587c-25.029,0-53.562-4.424-79.128-19.185c-62.482-36.074-80.373-118.387-81.104-121.874   l-1.503-7.166C11.107,169.45,0,211.869,0,256c0,32.807,6.146,64.665,17.863,94.279L52.828,361.747z" data-original="#000000" class="active-path" data-old_color="#858585" fill="#828282"/>
	<path d="M459.171,150.253c-0.683-0.222-71.005-22.522-121.749,6.776c-32.423,18.72-50.531,54.586-59.462,78.42   c29.531-5.142,78.339-8.143,119.462,15.599c62.482,36.074,80.373,118.387,81.104,121.874l1.503,7.166   C500.893,342.55,512,300.131,512,256c0-32.807-6.146-64.665-17.863-94.279L459.171,150.253z" data-original="#000000" class="active-path" data-old_color="#858585" fill="#828282"/>
	<path d="M245.994,484.825C246.527,484.344,301,434.595,301,376c0-37.258-22.021-70.934-38.202-90.65   c-10.321,28.148-32.125,71.875-73.22,95.602c-25.563,14.759-54.102,19.185-79.128,19.185c-36.145,0-64.969-9.227-66.969-9.883   l-6.95-2.279c10.648,17.636,23.509,34.104,38.451,49.045c39.433,39.433,89.466,64.412,143.673,72.287L245.994,484.825z" data-original="#000000" class="active-path" data-old_color="#858585" fill="#828282"/>
	<path d="M449.166,379.078c-0.15-0.703-15.998-72.751-66.743-102.049c-32.422-18.719-72.537-16.468-97.644-12.286   C303.997,287.747,331,328.515,331,376c0,72.148-62.34,128.798-64.994,131.175l-5.325,4.768   c66.628-1.187,129.092-27.677,176.338-74.923c7.025-7.025,13.577-14.396,19.67-22.059L449.166,379.078z" data-original="#000000" class="active-path" data-old_color="#858585" fill="#828282"/>
</g></g> </svg>
