<svg xmlns="http://www.w3.org/2000/svg" viewBox="0 0 90.37 90.38">
  <title>inner-outer</title>
  <g id="cc3d87d3-d8bd-48aa-9cf0-7b31550c9c13" data-name="Layer 2">
    <g id="1ae16699-7481-47cd-92eb-1dbf69126b58" data-name="Layer 1">
      <g>
        <path d="M79.75,79.75V71.09c0-4.23,0-8.46,0-12.7a5.27,5.27,0,0,1,10.13-2,6.82,6.82,0,0,1,.43,2.42q0,10.4,0,20.78A10.48,10.48,0,0,1,79.66,90.33q-10.65.08-21.29,0A5.27,5.27,0,0,1,56.86,80a6.86,6.86,0,0,1,2.08-.25q9.59,0,19.17,0Z" style="fill: #333"/>
        <path d="M79.75,10.62H75.34c-5.64,0-11.29,0-16.93,0a5.17,5.17,0,0,1-5-3.62,5,5,0,0,1,1.78-5.77A6.25,6.25,0,0,1,58.4.08C65.62,0,72.84,0,80.06.06A10.37,10.37,0,0,1,90.31,10.32c.1,7.18.06,14.36,0,21.54a5.29,5.29,0,1,1-10.58,0c0-6.56,0-13.11,0-19.67Z" style="fill: #333"/>
        <path d="M10.62,79.76H26.9c1.7,0,3.4,0,5.1,0a5.28,5.28,0,0,1,0,10.56c-7.34,0-14.69.09-22,0A10.27,10.27,0,0,1,.08,80.38C0,73,0,65.61.05,58.23a5.22,5.22,0,0,1,5.27-5.07,5.22,5.22,0,0,1,5.27,5.18c.06,6.39,0,12.78,0,19.17Z" style="fill: #333"/>
        <path d="M10.62,10.63v2.52c0,6.19,0,12.38,0,18.56A5.29,5.29,0,0,1,3.67,37,5.14,5.14,0,0,1,.06,32.2C0,24.77,0,17.34.09,9.91A10.25,10.25,0,0,1,9.88.1C17.31,0,24.75,0,32.18.06a5.2,5.2,0,0,1,5,5.3A5.24,5.24,0,0,1,32,10.6c-6.64.06-13.28,0-19.93,0Z" style="fill: #333"/>
      </g>
    </g>
  </g>
</svg>
