<svg xmlns="http://www.w3.org/2000/svg" viewBox="0 0 71.71 71.57">
  <title>Asset 21</title>
  <g id="19fa12b2-659f-41ef-b637-b7b53ad9b6a1" data-name="Layer 2">
    <g id="0629b15a-21a8-4847-af5a-877a7e24e489" data-name="Layer 1">
      <g>
        <path d="M35.79,0A20.69,20.69,0,0,0,24.08,37.74,35.84,35.84,0,0,0,0,71.57H5.59a30.23,30.23,0,0,1,30.2-30.19A20.69,20.69,0,0,0,35.79,0Zm0,35.79a15.1,15.1,0,1,1,15.09-15.1A15.12,15.12,0,0,1,35.79,35.79Z" style="fill: gray"/>
        <polygon points="59.97 54.24 59.97 42.5 54.38 42.5 54.38 54.24 42.64 54.24 42.64 59.83 54.38 59.83 54.38 71.57 59.97 71.57 59.97 59.83 71.71 59.83 71.71 54.24 59.97 54.24" style="fill: gray"/>
      </g>
    </g>
  </g>
</svg>
