<svg xmlns="http://www.w3.org/2000/svg" viewBox="0 0 197.75 197.75">
  <title>profile avatar</title>
  <g id="191d9fe6-f817-4856-bb5e-553637dcb7c5" data-name="Layer 2">
    <g id="3668dcb2-ee72-47dd-a309-3035effae2b3" data-name="Layer 1">
      <g>
        <circle cx="98.88" cy="98.88" r="98.87" style="fill: #29abe2"/>
        <g>
          <g>
            <polygon points="151.91 165.35 136.95 157.87 151.91 165.35 151.91 165.35" style="fill: none"/>
            <path d="M77.79,129.8a60,60,0,0,1-10.92-22.59,9,9,0,0,1-4.17-7.59V87.54a9,9,0,0,1,3-6.69V63.4s-3.58-27.16,33.2-27.16c8.62,0,15,1.49,19.77,3.78-4.75-2.29-11.15-3.78-19.78-3.78-36.78,0-33.19,27.16-33.19,27.16V80.85a9,9,0,0,0-3,6.69V99.61a9.07,9.07,0,0,0,4.17,7.6,59.93,59.93,0,0,0,10.92,22.58v11a11,11,0,0,1-3.34,7.9,11,11,0,0,0,3.35-7.89Z" style="fill: none"/>
            <g>
              <polygon points="151.91 165.35 136.95 157.87 151.91 165.35 151.91 165.35" style="fill: none"/>
              <path d="M77.79,129.8a60,60,0,0,1-10.92-22.59,9,9,0,0,1-4.17-7.59V87.54a9,9,0,0,1,3-6.69V63.4s-3.58-27.16,33.2-27.16c8.62,0,15,1.49,19.77,3.78-4.75-2.29-11.15-3.78-19.78-3.78-36.78,0-33.19,27.16-33.19,27.16V80.85a9,9,0,0,0-3,6.69V99.61a9.07,9.07,0,0,0,4.17,7.6,59.93,59.93,0,0,0,10.92,22.58v11a11,11,0,0,1-3.34,7.9,11,11,0,0,0,3.35-7.89Z" style="fill: none"/>
              <path d="M151.91,165.35l-15-7.48-13.87-6.93A11,11,0,0,1,117,141.1V129.79a42.71,42.71,0,0,0,2.72-3.5,66.38,66.38,0,0,0,9-18.06,9.06,9.06,0,0,0,6.43-8.62V87.54a9,9,0,0,0-3-6.69V63.4S134.2,47.48,118.68,40c-4.75-2.29-11.15-3.78-19.77-3.78-36.78,0-33.2,27.16-33.2,27.16V80.85a9,9,0,0,0-3,6.69V99.62a9,9,0,0,0,4.17,7.59A60,60,0,0,0,77.79,129.8v11a11,11,0,0,1-3.35,7.89,11.62,11.62,0,0,1-2.39,1.76L45.13,165.16a23.72,23.72,0,0,0-4.28,3.05h0l0,0a90.16,90.16,0,0,0,115.85.3h0A24,24,0,0,0,151.91,165.35Z" style="fill: #1b1464"/>
              <path d="M100.45,9A90.16,90.16,0,0,0,40.85,168.2h0a23.72,23.72,0,0,1,4.28-3.05l26.92-14.68a11.62,11.62,0,0,0,2.39-1.76,11,11,0,0,0,3.34-7.9v-11a59.93,59.93,0,0,1-10.92-22.58,9.07,9.07,0,0,1-4.17-7.6V87.54a9,9,0,0,1,3-6.69V63.4S62.12,36.24,98.9,36.24c8.63,0,15,1.49,19.78,3.78C134.2,47.48,132.1,63.4,132.1,63.4V80.85a9,9,0,0,1,3,6.69V99.61a9.06,9.06,0,0,1-6.43,8.62,66.38,66.38,0,0,1-9,18.06,42.71,42.71,0,0,1-2.72,3.5V141.1a11,11,0,0,0,6.07,9.84L137,157.87l15,7.48h0a24,24,0,0,1,4.73,3.17h0A90.21,90.21,0,0,0,100.45,9Z" style="fill: #98daff"/>
            </g>
          </g>
          <circle cx="98.7" cy="99.1" r="90.08" style="fill: none;stroke: #fff;stroke-miterlimit: 10;stroke-width: 3px"/>
        </g>
      </g>
    </g>
  </g>
</svg>
